<?xml version="1.0" encoding="UTF-8"?>
<svg version="1.1" xmlns="http://www.w3.org/2000/svg" width="48" height="48">
<path d="M0 0 C3.19551597 0.56281103 4.80125486 2.03130425 6.99609375 4.3515625 C9.99609375 8.69639009 9.99609375 8.69639009 9.99609375 11.3515625 C10.65609375 11.3515625 11.31609375 11.3515625 11.99609375 11.3515625 C12.22296875 10.6296875 12.44984375 9.9078125 12.68359375 9.1640625 C14.24878983 5.81007089 16.29302091 3.84670666 18.99609375 1.3515625 C19.32609375 1.0215625 19.65609375 0.6915625 19.99609375 0.3515625 C22.9218404 0.06378414 25.14736216 -0.12600264 27.99609375 0.3515625 C32.52598294 4.16620603 33.64022705 9.74673353 34.203125 15.44873047 C34.29828657 17.56657094 34.32475937 19.66919483 34.30859375 21.7890625 C34.30339722 22.90112061 34.30339722 22.90112061 34.2980957 24.03564453 C34.17604003 30.18428322 33.62415326 36.04944738 29.640625 41.0546875 C27.09997665 43.05823917 24.99254192 42.7667861 21.8671875 42.640625 C19.99609375 42.3515625 19.99609375 42.3515625 18.05859375 41.1015625 C16.8007361 39.02979695 16.07026733 37.79929075 15.99609375 35.3515625 C17.87109375 33.2265625 17.87109375 33.2265625 19.99609375 31.3515625 C20.32609375 30.6915625 20.65609375 30.0315625 20.99609375 29.3515625 C20.33609375 29.3515625 19.67609375 29.3515625 18.99609375 29.3515625 C18.72796875 29.9703125 18.45984375 30.5890625 18.18359375 31.2265625 C16.99609375 33.3515625 16.99609375 33.3515625 13.99609375 35.3515625 C10.07909221 35.86247574 8.46670402 35.65848224 5.12109375 33.4765625 C4.41984375 32.7753125 3.71859375 32.0740625 2.99609375 31.3515625 C2.99609375 30.6915625 2.99609375 30.0315625 2.99609375 29.3515625 C2.33609375 29.3515625 1.67609375 29.3515625 0.99609375 29.3515625 C2.86175863 32.97950248 2.86175863 32.97950248 5.99609375 35.3515625 C4.92208267 38.26673542 4.21799199 40.12966426 1.99609375 42.3515625 C-4.94096919 43.02289117 -4.94096919 43.02289117 -8.37890625 40.8515625 C-12.04729678 35.20788477 -12.36667384 28.53235659 -12.31640625 21.9765625 C-12.31294189 21.23776855 -12.30947754 20.49897461 -12.3059082 19.73779297 C-12.18040407 13.40434144 -11.69254851 6.76436628 -7.640625 1.62109375 C-5.2586425 -0.22650604 -2.92810676 -0.11819881 0 0 Z " fill="#000000" transform="translate(13.00390625,2.6484375)"/>
</svg>
